<svg width="19" height="18" viewBox="0 0 19 18" fill="none" xmlns="http://www.w3.org/2000/svg">
    <path fill-rule="evenodd" clip-rule="evenodd" d="M9.16663 18C10.7925 18.0001 12.3881 17.5598 13.7838 16.7259C15.1795 15.8919 16.3232 14.6955 17.0934 13.2636C17.8636 11.8318 18.2316 10.218 18.1582 8.59378C18.0848 6.96956 17.5728 5.39556 16.6766 4.039L9.52163 11.989C9.18742 12.3604 8.72629 12.5933 8.22901 12.6418C7.73172 12.6903 7.23429 12.5509 6.83463 12.251L3.56663 9.8C3.35446 9.64087 3.21419 9.40397 3.17668 9.14142C3.13917 8.87887 3.2075 8.61217 3.36663 8.4C3.52576 8.18783 3.76266 8.04756 4.02521 8.01005C4.28776 7.97254 4.55446 8.04087 4.76663 8.2L8.03463 10.651L15.3806 2.49C14.3164 1.47411 13.0194 0.734601 11.6031 0.336222C10.1869 -0.0621564 8.69451 -0.107256 7.25676 0.204872C5.81901 0.517001 4.4797 1.17684 3.3561 2.12661C2.2325 3.07639 1.35887 4.28713 0.811708 5.65284C0.264544 7.01855 0.0605308 8.49757 0.217531 9.96041C0.374531 11.4233 0.887756 12.8253 1.71227 14.0438C2.53679 15.2623 3.64745 16.2601 4.947 16.9498C6.24656 17.6395 7.69539 18.0001 9.16663 18Z" fill="#004AAD"/>
</svg>
