<svg width="21" height="20" viewBox="0 0 21 20" fill="none" xmlns="http://www.w3.org/2000/svg">
    <path d="M6.56663 15L10.1666 11.4L13.7666 15L15.1666 13.6L11.5666 10L15.1666 6.4L13.7666 5L10.1666 8.6L6.56663 5L5.16663 6.4L8.76663 10L5.16663 13.6L6.56663 15ZM10.1666 20C8.78329 20 7.48329 19.7373 6.26663 19.212C5.04996 18.6867 3.99163 17.9743 3.09163 17.075C2.19163 16.1757 1.47929 15.1173 0.954627 13.9C0.429961 12.6827 0.167294 11.3827 0.166627 10C0.165961 8.61733 0.428627 7.31733 0.954627 6.1C1.48063 4.88267 2.19296 3.82433 3.09163 2.925C3.99029 2.02567 5.04863 1.31333 6.26663 0.788C7.48463 0.262667 8.78463 0 10.1666 0C11.5486 0 12.8486 0.262667 14.0666 0.788C15.2846 1.31333 16.343 2.02567 17.2416 2.925C18.1403 3.82433 18.853 4.88267 19.3796 6.1C19.9063 7.31733 20.1686 8.61733 20.1666 10C20.1646 11.3827 19.902 12.6827 19.3786 13.9C18.8553 15.1173 18.143 16.1757 17.2416 17.075C16.3403 17.9743 15.282 18.687 14.0666 19.213C12.8513 19.739 11.5513 20.0013 10.1666 20Z" fill="#E52626"/>
</svg>
